<svg xmlns="http://www.w3.org/2000/svg" viewBox="0 0 400 300">
  <rect width="400" height="300" fill="#EDE8E0"/>
  <!-- Button 1 left -->
  <circle cx="130" cy="150" r="48" fill="#D4A853" opacity="0.2"/>
  <circle cx="130" cy="150" r="48" fill="none" stroke="#D4A853" stroke-width="2.5"/>
  <circle cx="130" cy="150" r="38" fill="none" stroke="#D4A853" stroke-width="1.2" opacity="0.5"/>
  <circle cx="130" cy="150" r="26" fill="none" stroke="#D4A853" stroke-width="1" opacity="0.4"/>
  <!-- Decorative cross lines on button 1 -->
  <line x1="130" y1="124" x2="130" y2="176" stroke="#D4A853" stroke-width="1.5" opacity="0.5"/>
  <line x1="104" y1="150" x2="156" y2="150" stroke="#D4A853" stroke-width="1.5" opacity="0.5"/>
  <!-- Center shank hole -->
  <circle cx="130" cy="150" r="6" fill="#8B6820" opacity="0.6"/>
  <!-- Gold sheen -->
  <path d="M113 132 Q130 126 147 134" fill="none" stroke="#F5E090" stroke-width="2" opacity="0.7"/>
  <!-- Button 2 center -->
  <circle cx="200" cy="150" r="52" fill="#D4A853" opacity="0.25"/>
  <circle cx="200" cy="150" r="52" fill="none" stroke="#C9A030" stroke-width="3"/>
  <circle cx="200" cy="150" r="42" fill="none" stroke="#D4A853" stroke-width="1.5" opacity="0.55"/>
  <circle cx="200" cy="150" r="30" fill="none" stroke="#D4A853" stroke-width="1.2" opacity="0.45"/>
  <!-- Decorative details -->
  <line x1="200" y1="120" x2="200" y2="180" stroke="#C9A030" stroke-width="1.8" opacity="0.55"/>
  <line x1="170" y1="150" x2="230" y2="150" stroke="#C9A030" stroke-width="1.8" opacity="0.55"/>
  <line x1="178" y1="128" x2="222" y2="172" stroke="#C9A030" stroke-width="1" opacity="0.35"/>
  <line x1="222" y1="128" x2="178" y2="172" stroke="#C9A030" stroke-width="1" opacity="0.35"/>
  <circle cx="200" cy="150" r="7" fill="#8B6820" opacity="0.65"/>
  <path d="M182 130 Q200 123 218 132" fill="none" stroke="#F5E090" stroke-width="2.5" opacity="0.7"/>
  <!-- Button 3 right -->
  <circle cx="270" cy="150" r="48" fill="#D4A853" opacity="0.2"/>
  <circle cx="270" cy="150" r="48" fill="none" stroke="#D4A853" stroke-width="2.5"/>
  <circle cx="270" cy="150" r="38" fill="none" stroke="#D4A853" stroke-width="1.2" opacity="0.5"/>
  <circle cx="270" cy="150" r="26" fill="none" stroke="#D4A853" stroke-width="1" opacity="0.4"/>
  <line x1="270" y1="124" x2="270" y2="176" stroke="#D4A853" stroke-width="1.5" opacity="0.5"/>
  <line x1="244" y1="150" x2="296" y2="150" stroke="#D4A853" stroke-width="1.5" opacity="0.5"/>
  <circle cx="270" cy="150" r="6" fill="#8B6820" opacity="0.6"/>
  <path d="M253 132 Q270 126 287 134" fill="none" stroke="#F5E090" stroke-width="2" opacity="0.7"/>
  <!-- Label -->
  <text x="200" y="276" text-anchor="middle" font-family="Georgia,serif" font-size="14" fill="#5C3D2E" font-weight="700" letter-spacing="0.5">Botones Dorados x10</text>
</svg>
