<svg xmlns="http://www.w3.org/2000/svg" viewBox="0 0 400 300">
  <rect width="400" height="300" fill="#EDE8E0"/>
  <!-- Button 1 top-left -->
  <circle cx="138" cy="118" r="38" fill="#F5F0EA" stroke="#8B6F5E" stroke-width="2.2"/>
  <circle cx="138" cy="118" r="28" fill="none" stroke="#8B6F5E" stroke-width="1" opacity="0.4"/>
  <circle cx="128" cy="112" r="4" fill="#8B6F5E" opacity="0.65"/>
  <circle cx="148" cy="112" r="4" fill="#8B6F5E" opacity="0.65"/>
  <circle cx="128" cy="124" r="4" fill="#8B6F5E" opacity="0.65"/>
  <circle cx="148" cy="124" r="4" fill="#8B6F5E" opacity="0.65"/>
  <!-- Nacre sheen -->
  <path d="M125 108 Q138 104 150 110" fill="none" stroke="white" stroke-width="2" opacity="0.6"/>
  <!-- Button 2 top-right -->
  <circle cx="262" cy="118" r="38" fill="#F5F0EA" stroke="#8B6F5E" stroke-width="2.2"/>
  <circle cx="262" cy="118" r="28" fill="none" stroke="#8B6F5E" stroke-width="1" opacity="0.4"/>
  <circle cx="252" cy="112" r="4" fill="#8B6F5E" opacity="0.65"/>
  <circle cx="272" cy="112" r="4" fill="#8B6F5E" opacity="0.65"/>
  <circle cx="252" cy="124" r="4" fill="#8B6F5E" opacity="0.65"/>
  <circle cx="272" cy="124" r="4" fill="#8B6F5E" opacity="0.65"/>
  <path d="M249 108 Q262 104 274 110" fill="none" stroke="white" stroke-width="2" opacity="0.6"/>
  <!-- Button 3 bottom-left -->
  <circle cx="148" cy="198" r="36" fill="#F5F0EA" stroke="#8B6F5E" stroke-width="2.2"/>
  <circle cx="148" cy="198" r="26" fill="none" stroke="#8B6F5E" stroke-width="1" opacity="0.4"/>
  <circle cx="139" cy="192" r="4" fill="#8B6F5E" opacity="0.65"/>
  <circle cx="157" cy="192" r="4" fill="#8B6F5E" opacity="0.65"/>
  <circle cx="139" cy="204" r="4" fill="#8B6F5E" opacity="0.65"/>
  <circle cx="157" cy="204" r="4" fill="#8B6F5E" opacity="0.65"/>
  <path d="M135 188 Q148 184 160 190" fill="none" stroke="white" stroke-width="2" opacity="0.6"/>
  <!-- Button 4 bottom-right -->
  <circle cx="252" cy="198" r="36" fill="#F5F0EA" stroke="#8B6F5E" stroke-width="2.2"/>
  <circle cx="252" cy="198" r="26" fill="none" stroke="#8B6F5E" stroke-width="1" opacity="0.4"/>
  <circle cx="243" cy="192" r="4" fill="#8B6F5E" opacity="0.65"/>
  <circle cx="261" cy="192" r="4" fill="#8B6F5E" opacity="0.65"/>
  <circle cx="243" cy="204" r="4" fill="#8B6F5E" opacity="0.65"/>
  <circle cx="261" cy="204" r="4" fill="#8B6F5E" opacity="0.65"/>
  <path d="M239 188 Q252 184 264 190" fill="none" stroke="white" stroke-width="2" opacity="0.6"/>
  <!-- Label -->
  <text x="200" y="276" text-anchor="middle" font-family="Georgia,serif" font-size="14" fill="#5C3D2E" font-weight="700" letter-spacing="0.5">Botones Nácar x20</text>
</svg>
