<svg xmlns="http://www.w3.org/2000/svg" viewBox="0 0 400 300">
  <rect width="400" height="300" fill="#EDE8E0"/>
  <!-- Thimble body - trapezoid shape -->
  <path d="M148 220 Q148 200 160 178 Q172 156 180 136 Q190 112 200 88 Q210 112 220 136 Q228 156 240 178 Q252 200 252 220 Z"
        fill="#C0A882" stroke="#A08060" stroke-width="2.2"/>
  <!-- Dome top -->
  <ellipse cx="200" cy="88" rx="18" ry="12" fill="#D4B890" stroke="#A08060" stroke-width="1.8"/>
  <!-- Bottom rim -->
  <ellipse cx="200" cy="220" rx="52" ry="12" fill="#C0A882" stroke="#A08060" stroke-width="2"/>
  <ellipse cx="200" cy="220" rx="52" ry="12" fill="none" stroke="#8B7050" stroke-width="1" opacity="0.5"/>
  <!-- Dimple pattern rows -->
  <!-- Row 1 -->
  <circle cx="185" cy="115" r="3.5" fill="#8B7050" opacity="0.5"/>
  <circle cx="200" cy="112" r="3.5" fill="#8B7050" opacity="0.5"/>
  <circle cx="215" cy="115" r="3.5" fill="#8B7050" opacity="0.5"/>
  <!-- Row 2 -->
  <circle cx="175" cy="132" r="3.5" fill="#8B7050" opacity="0.5"/>
  <circle cx="190" cy="129" r="3.5" fill="#8B7050" opacity="0.5"/>
  <circle cx="205" cy="127" r="3.5" fill="#8B7050" opacity="0.5"/>
  <circle cx="220" cy="129" r="3.5" fill="#8B7050" opacity="0.5"/>
  <!-- Row 3 -->
  <circle cx="167" cy="150" r="3.5" fill="#8B7050" opacity="0.5"/>
  <circle cx="181" cy="147" r="3.5" fill="#8B7050" opacity="0.5"/>
  <circle cx="196" cy="145" r="3.5" fill="#8B7050" opacity="0.5"/>
  <circle cx="211" cy="147" r="3.5" fill="#8B7050" opacity="0.5"/>
  <circle cx="225" cy="150" r="3.5" fill="#8B7050" opacity="0.5"/>
  <!-- Row 4 -->
  <circle cx="160" cy="168" r="3.5" fill="#8B7050" opacity="0.5"/>
  <circle cx="175" cy="165" r="3.5" fill="#8B7050" opacity="0.5"/>
  <circle cx="190" cy="163" r="3.5" fill="#8B7050" opacity="0.5"/>
  <circle cx="205" cy="162" r="3.5" fill="#8B7050" opacity="0.5"/>
  <circle cx="220" cy="163" r="3.5" fill="#8B7050" opacity="0.5"/>
  <circle cx="234" cy="168" r="3.5" fill="#8B7050" opacity="0.5"/>
  <!-- Row 5 -->
  <circle cx="156" cy="187" r="3.5" fill="#8B7050" opacity="0.5"/>
  <circle cx="170" cy="184" r="3.5" fill="#8B7050" opacity="0.5"/>
  <circle cx="185" cy="182" r="3.5" fill="#8B7050" opacity="0.5"/>
  <circle cx="200" cy="181" r="3.5" fill="#8B7050" opacity="0.5"/>
  <circle cx="215" cy="182" r="3.5" fill="#8B7050" opacity="0.5"/>
  <circle cx="230" cy="184" r="3.5" fill="#8B7050" opacity="0.5"/>
  <circle cx="244" cy="187" r="3.5" fill="#8B7050" opacity="0.5"/>
  <!-- Highlight -->
  <path d="M185 96 Q196 90 208 95" fill="none" stroke="white" stroke-width="2" opacity="0.5"/>
  <!-- Label -->
  <text x="200" y="270" text-anchor="middle" font-family="Georgia,serif" font-size="14" fill="#5C4030" font-weight="700" letter-spacing="0.5">Dedal de Metal Ajustable</text>
</svg>
