<svg xmlns="http://www.w3.org/2000/svg" viewBox="0 0 400 300">
  <rect width="400" height="300" fill="#E8EFE4"/>
  <!-- Fabric piece -->
  <rect x="78" y="68" width="244" height="172" rx="3" fill="#D5E0CC" stroke="#7B9B6F" stroke-width="2"/>
  <!-- Linen weave — thick horizontal warp -->
  <line x1="78" y1="80"  x2="322" y2="80"  stroke="#7B9B6F" stroke-width="2.5" opacity="0.4"/>
  <line x1="78" y1="92"  x2="322" y2="92"  stroke="#8B9B80" stroke-width="1.2" opacity="0.3"/>
  <line x1="78" y1="104" x2="322" y2="104" stroke="#7B9B6F" stroke-width="2.5" opacity="0.4"/>
  <line x1="78" y1="116" x2="322" y2="116" stroke="#8B9B80" stroke-width="1.2" opacity="0.3"/>
  <line x1="78" y1="128" x2="322" y2="128" stroke="#7B9B6F" stroke-width="2.5" opacity="0.4"/>
  <line x1="78" y1="140" x2="322" y2="140" stroke="#8B9B80" stroke-width="1.2" opacity="0.3"/>
  <line x1="78" y1="152" x2="322" y2="152" stroke="#7B9B6F" stroke-width="2.5" opacity="0.4"/>
  <line x1="78" y1="164" x2="322" y2="164" stroke="#8B9B80" stroke-width="1.2" opacity="0.3"/>
  <line x1="78" y1="176" x2="322" y2="176" stroke="#7B9B6F" stroke-width="2.5" opacity="0.4"/>
  <line x1="78" y1="188" x2="322" y2="188" stroke="#8B9B80" stroke-width="1.2" opacity="0.3"/>
  <line x1="78" y1="200" x2="322" y2="200" stroke="#7B9B6F" stroke-width="2.5" opacity="0.4"/>
  <line x1="78" y1="212" x2="322" y2="212" stroke="#8B9B80" stroke-width="1.2" opacity="0.3"/>
  <line x1="78" y1="224" x2="322" y2="224" stroke="#7B9B6F" stroke-width="2.5" opacity="0.4"/>
  <!-- Linen weave — vertical weft -->
  <line x1="90"  y1="68" x2="90"  y2="240" stroke="#7B9B6F" stroke-width="2.5" opacity="0.4"/>
  <line x1="102" y1="68" x2="102" y2="240" stroke="#8B9B80" stroke-width="1.2" opacity="0.3"/>
  <line x1="114" y1="68" x2="114" y2="240" stroke="#7B9B6F" stroke-width="2.5" opacity="0.4"/>
  <line x1="126" y1="68" x2="126" y2="240" stroke="#8B9B80" stroke-width="1.2" opacity="0.3"/>
  <line x1="138" y1="68" x2="138" y2="240" stroke="#7B9B6F" stroke-width="2.5" opacity="0.4"/>
  <line x1="150" y1="68" x2="150" y2="240" stroke="#8B9B80" stroke-width="1.2" opacity="0.3"/>
  <line x1="162" y1="68" x2="162" y2="240" stroke="#7B9B6F" stroke-width="2.5" opacity="0.4"/>
  <line x1="174" y1="68" x2="174" y2="240" stroke="#8B9B80" stroke-width="1.2" opacity="0.3"/>
  <line x1="186" y1="68" x2="186" y2="240" stroke="#7B9B6F" stroke-width="2.5" opacity="0.4"/>
  <line x1="198" y1="68" x2="198" y2="240" stroke="#8B9B80" stroke-width="1.2" opacity="0.3"/>
  <line x1="210" y1="68" x2="210" y2="240" stroke="#7B9B6F" stroke-width="2.5" opacity="0.4"/>
  <line x1="222" y1="68" x2="222" y2="240" stroke="#8B9B80" stroke-width="1.2" opacity="0.3"/>
  <line x1="234" y1="68" x2="234" y2="240" stroke="#7B9B6F" stroke-width="2.5" opacity="0.4"/>
  <line x1="246" y1="68" x2="246" y2="240" stroke="#8B9B80" stroke-width="1.2" opacity="0.3"/>
  <line x1="258" y1="68" x2="258" y2="240" stroke="#7B9B6F" stroke-width="2.5" opacity="0.4"/>
  <line x1="270" y1="68" x2="270" y2="240" stroke="#8B9B80" stroke-width="1.2" opacity="0.3"/>
  <line x1="282" y1="68" x2="282" y2="240" stroke="#7B9B6F" stroke-width="2.5" opacity="0.4"/>
  <line x1="294" y1="68" x2="294" y2="240" stroke="#8B9B80" stroke-width="1.2" opacity="0.3"/>
  <line x1="306" y1="68" x2="306" y2="240" stroke="#7B9B6F" stroke-width="2.5" opacity="0.4"/>
  <line x1="318" y1="68" x2="318" y2="240" stroke="#8B9B80" stroke-width="1.2" opacity="0.3"/>
  <!-- Label -->
  <text x="200" y="272" text-anchor="middle" font-family="Georgia,serif" font-size="14" fill="#3D6030" font-weight="700" letter-spacing="0.5">Tela Lino Natural 1m</text>
</svg>
